<?xml version="1.0" encoding="utf-8"?>
<!-- Generator: Adobe Illustrator 25.4.1, SVG Export Plug-In . SVG Version: 6.00 Build 0)  -->
<svg version="1.1" id="Calque_1" xmlns="http://www.w3.org/2000/svg" xmlns:xlink="http://www.w3.org/1999/xlink" x="0px" y="0px"
	 width="274px" height="50px" viewBox="0 0 275.9 50" style="enable-background:new 0 0 275.9 50;" xml:space="preserve">
<style type="text/css">
	.st0{fill:url(#SVGID_1_);}
	.st1{fill:url(#SVGID_00000181086253198670511320000014809999951505715357_);}
	.st2{fill:url(#SVGID_00000078750182195600820130000009211651612862807487_);}
	.st3{fill:#4D5054;}
</style>
<g>
	<g>
		<g>
			<linearGradient id="SVGID_1_" gradientUnits="userSpaceOnUse" x1="9.363683e-05" y1="24.9454" x2="50.11" y2="24.9454">
				<stop  offset="0" style="stop-color:#2F378F"/>
				<stop  offset="1" style="stop-color:#272560"/>
			</linearGradient>
			<path class="st0" d="M24.79,24.12c-8.79,0-8-7.93-16.07-7.93C3.9,16.2,0,20.11,0,24.95c0,4.83,3.9,8.75,8.72,8.75
				c8.02,0,7.8-7.79,16.47-7.79s8,7.79,16.64,7.79v-0.03c4.65,0,8.29-3.9,8.29-8.72c0-4.81-4.09-8.72-8.88-8.72
				C33.25,16.23,33.58,24.12,24.79,24.12z"/>
			
				<linearGradient id="SVGID_00000115500320499220577980000007625285016787503239_" gradientUnits="userSpaceOnUse" x1="16.2559" y1="41.1967" x2="33.8626" y2="41.1967">
				<stop  offset="0" style="stop-color:#2F378F"/>
				<stop  offset="1" style="stop-color:#272560"/>
			</linearGradient>
			<circle style="fill:url(#SVGID_00000115500320499220577980000007625285016787503239_);" cx="25.06" cy="41.2" r="8.8"/>
			
				<linearGradient id="SVGID_00000160156428082368412870000016764496763869046435_" gradientUnits="userSpaceOnUse" x1="16.2559" y1="8.8033" x2="33.8626" y2="8.8033">
				<stop  offset="0" style="stop-color:#2F378F"/>
				<stop  offset="1" style="stop-color:#272560"/>
			</linearGradient>
			<circle style="fill:url(#SVGID_00000160156428082368412870000016764496763869046435_);" cx="25.06" cy="8.8" r="8.8"/>
		</g>
	</g>
	<g>
		<path class="st3" d="M62.26,32.89V15.83h6.92c3.48,0,5.23,1.52,5.23,4.57c0,3.32-2.38,5.34-7.15,6.07l-0.45-1.86
			c3.5-0.52,5.25-1.89,5.25-4.12c0-1.89-1.03-2.84-3.08-2.84h-4.51v15.24H62.26z"/>
		<path class="st3" d="M76.49,29.11c0-2.57,1.69-3.85,5.08-3.85c1.09,0,2.18,0.08,3.27,0.24v-1.18c0-1.44-1.13-2.16-3.38-2.16
			c-1.29,0-2.61,0.2-3.96,0.6v-1.79c1.35-0.4,2.67-0.6,3.96-0.6c3.72,0,5.58,1.3,5.58,3.89v8.64h-1.24l-0.76-1.24
			c-1.25,0.83-2.61,1.24-4.08,1.24C77.98,32.89,76.49,31.63,76.49,29.11z M81.57,27.05c-1.92,0-2.88,0.68-2.88,2.03
			c0,1.35,0.76,2.03,2.27,2.03c1.53,0,2.82-0.41,3.88-1.22v-2.6C83.75,27.13,82.66,27.05,81.57,27.05z"/>
		<path class="st3" d="M90.63,32.89V20.36h1.49l0.39,1.6c1.1-1.07,2.42-1.6,3.96-1.6v1.84c-1.5,0-2.71,0.53-3.64,1.59v9.1H90.63z"/>
		<path class="st3" d="M101.13,15.83v2.09h-2.21v-2.09H101.13z M101.13,20.36v12.53h-2.21V20.36H101.13z"/>
		<path class="st3" d="M104.83,32.3v-1.91c1.47,0.48,2.96,0.72,4.46,0.72c2,0,3-0.6,3-1.79c0-1.11-0.7-1.67-2.09-1.67h-1.79
			c-2.7,0-4.06-1.23-4.06-3.7c0-2.39,1.74-3.58,5.21-3.58c1.5,0,2.98,0.2,4.45,0.6v1.91c-1.47-0.48-2.96-0.72-4.45-0.72
			c-2.08,0-3.13,0.6-3.13,1.79c0,1.11,0.66,1.67,1.97,1.67h1.79c2.86,0,4.3,1.23,4.3,3.7c0,2.39-1.73,3.58-5.2,3.58
			C107.79,32.89,106.3,32.69,104.83,32.3z"/>
		<path class="st3" d="M123.69,32.89V15.83h7.28c3.25,0,4.87,1.32,4.87,3.97c0,1.94-1.06,3.33-3.17,4.16
			c2.26,0.42,3.39,1.71,3.39,3.88c0,3.37-1.78,5.05-5.33,5.05H123.69z M130.58,31.1c2.04,0,3.05-1.03,3.05-3.1
			c0-2.01-1.36-3.02-4.09-3.02h-0.95v-1.44c3.26-0.44,4.89-1.61,4.89-3.53c0-1.59-0.91-2.39-2.72-2.39h-4.87V31.1H130.58z"/>
		<path class="st3" d="M141.76,15.83v2.09h-2.21v-2.09H141.76z M141.76,20.36v12.53h-2.21V20.36H141.76z"/>
		<path class="st3" d="M144.99,26.63c0-4.18,1.99-6.26,5.97-6.26s5.97,2.09,5.97,6.26c0,4.17-1.99,6.25-5.97,6.25
			C146.99,32.88,145,30.8,144.99,26.63z M150.95,31.1c2.51,0,3.76-1.51,3.76-4.52c0-2.95-1.25-4.43-3.76-4.43
			c-2.51,0-3.76,1.48-3.76,4.43C147.19,29.6,148.45,31.1,150.95,31.1z"/>
		<path class="st3" d="M159.9,18.33h1.38l0.48,2.03h3.39v1.79h-3.04v7.2c0,1.17,0.51,1.75,1.52,1.75h1.53v1.79h-2.1
			c-2.1,0-3.15-1.13-3.15-3.38V18.33z"/>
		<path class="st3" d="M173.12,20.36c3.56,0,5.35,1.76,5.35,5.29c0,0.5-0.04,1.04-0.11,1.61h-8.79c0,2.56,1.5,3.84,4.49,3.84
			c1.42,0,2.69-0.16,3.79-0.48v1.79c-1.11,0.32-2.45,0.48-4.03,0.48c-4.3,0-6.46-2.14-6.46-6.41
			C167.36,22.4,169.28,20.36,173.12,20.36z M169.57,25.42h6.78c-0.05-2.2-1.12-3.29-3.22-3.29
			C170.9,22.13,169.71,23.23,169.57,25.42z"/>
		<path class="st3" d="M190.87,32.53c-1.03,0.24-2.15,0.36-3.34,0.36c-4.45,0-6.68-2.17-6.68-6.5c0-4.02,2.23-6.03,6.68-6.03
			c1.19,0,2.31,0.12,3.34,0.36v1.79c-1.03-0.24-2.19-0.36-3.46-0.36c-2.9,0-4.36,1.41-4.36,4.24c0,3.14,1.45,4.71,4.36,4.71
			c1.27,0,2.43-0.12,3.46-0.36V32.53z"/>
		<path class="st3" d="M193.67,32.89V15.83h2.21v5.89c1.07-0.91,2.37-1.36,3.9-1.36c3.13,0,4.69,1.56,4.69,4.67v7.86h-2.21v-7.9
			c0-1.86-0.93-2.79-2.78-2.79c-1.26,0-2.47,0.53-3.6,1.59v9.1H193.67z"/>
		<path class="st3" d="M214.02,32.3v-2.03c1.79,0.64,3.72,0.95,5.8,0.95c2.94,0,4.4-1.07,4.4-3.22c0-1.83-1.08-2.74-3.25-2.74h-2.2
			c-3.57,0-5.36-1.55-5.36-4.65c0-3.26,2.29-4.89,6.86-4.89c1.99,0,3.84,0.24,5.55,0.72v2.03c-1.71-0.64-3.56-0.95-5.55-0.95
			c-3.1,0-4.65,1.03-4.65,3.1c0,1.83,1.05,2.74,3.15,2.74h2.2c3.64,0,5.45,1.55,5.45,4.65c0,3.34-2.2,5.01-6.61,5.01
			C217.74,33.01,215.81,32.77,214.02,32.3z"/>
		<path class="st3" d="M228.82,29.11c0-2.57,1.69-3.85,5.08-3.85c1.09,0,2.18,0.08,3.27,0.24v-1.18c0-1.44-1.13-2.16-3.38-2.16
			c-1.29,0-2.61,0.2-3.96,0.6v-1.79c1.35-0.4,2.67-0.6,3.96-0.6c3.72,0,5.58,1.3,5.58,3.89v8.64h-1.24l-0.76-1.24
			c-1.25,0.83-2.61,1.24-4.08,1.24C230.31,32.89,228.82,31.63,228.82,29.11z M233.9,27.05c-1.92,0-2.88,0.68-2.88,2.03
			c0,1.35,0.76,2.03,2.27,2.03c1.53,0,2.82-0.41,3.88-1.22v-2.6C236.08,27.13,234.99,27.05,233.9,27.05z"/>
		<path class="st3" d="M242.96,32.89V20.36h1.49l0.39,1.6c1.28-1.07,2.69-1.6,4.22-1.6c3.13,0,4.69,1.56,4.69,4.67v7.86h-2.21v-7.9
			c0-1.86-0.93-2.79-2.78-2.79c-1.26,0-2.47,0.53-3.6,1.59v9.1H242.96z"/>
		<path class="st3" d="M257.34,18.33h1.38l0.48,2.03h3.39v1.79h-3.04v7.2c0,1.17,0.51,1.75,1.52,1.75h1.53v1.79h-2.1
			c-2.1,0-3.15-1.13-3.15-3.38V18.33z"/>
		<path class="st3" d="M270.56,20.36c3.56,0,5.35,1.76,5.35,5.29c0,0.5-0.04,1.04-0.11,1.61H267c0,2.56,1.5,3.84,4.49,3.84
			c1.42,0,2.69-0.16,3.79-0.48v1.79c-1.11,0.32-2.45,0.48-4.03,0.48c-4.3,0-6.46-2.14-6.46-6.41
			C264.79,22.4,266.71,20.36,270.56,20.36z M267,25.42h6.78c-0.05-2.2-1.12-3.29-3.22-3.29C268.33,22.13,267.14,23.23,267,25.42z
			 M270.7,15.83h2.85l-2.85,2.85h-1.96L270.7,15.83z"/>
	</g>
</g>
</svg>
